<?xml version="1.0" encoding="UTF-8" standalone="no"?>
<!-- Created with Inkscape (http://www.inkscape.org/) -->

<svg
   xmlns:dc="http://purl.org/dc/elements/1.1/"
   xmlns:cc="http://creativecommons.org/ns#"
   xmlns:rdf="http://www.w3.org/1999/02/22-rdf-syntax-ns#"
   xmlns:svg="http://www.w3.org/2000/svg"
   xmlns="http://www.w3.org/2000/svg"
   xmlns:sodipodi="http://sodipodi.sourceforge.net/DTD/sodipodi-0.dtd"
   xmlns:inkscape="http://www.inkscape.org/namespaces/inkscape"
   version="1.1"
   id="svg2"
   xml:space="preserve"
   width="256.63391"
   height="313.5014"
   viewBox="0 0 256.63391 313.5014"
   sodipodi:docname="AzrieliGroup.svg"
   inkscape:version="0.92.3 (2405546, 2018-03-11)"><metadata
     id="metadata8"><rdf:RDF><cc:Work
         rdf:about=""><dc:format>image/svg+xml</dc:format><dc:type
           rdf:resource="http://purl.org/dc/dcmitype/StillImage" /><dc:title></dc:title></cc:Work></rdf:RDF></metadata><defs
     id="defs6"><clipPath
       clipPathUnits="userSpaceOnUse"
       id="clipPath20"><path
         d="M 0,595.276 H 841.89 V 0 H 0 Z"
         id="path18"
         inkscape:connector-curvature="0" /></clipPath><clipPath
       clipPathUnits="userSpaceOnUse"
       id="clipPath32"><path
         d="M 0,48.914 H 841.89 V 0 H 0 Z"
         id="path30"
         inkscape:connector-curvature="0" /></clipPath><clipPath
       clipPathUnits="userSpaceOnUse"
       id="clipPath52"><path
         d="m 150.635,48.914 c 3.521,-1.887 6.643,-4.449 9.195,-7.517 v 0 l -1.152,-0.958 c -3.099,3.72 -7.064,6.653 -11.576,8.475 v 0 h -21.496 c -3.771,-1.523 -7.16,-3.822 -9.981,-6.709 v 0 C 110.316,36.77 107.031,29.264 107.03,20.964 v 0 C 107.031,12.803 110.205,5.412 115.357,0 v 0 h 41.995 c 4.993,5.245 8.128,12.352 8.317,20.214 v 0 h -39.742 v 1.499 h 41.251 V 20.964 C 167.178,12.919 164.231,5.572 159.38,0 v 0 h 682.51 v 48.914 z m -65.017,0 21.045,-36.454 c -0.738,2.707 -1.134,5.559 -1.134,8.504 v 0 c 0,8.7 3.448,16.584 9.023,22.29 v 0 c 2.201,2.253 4.736,4.168 7.522,5.66 v 0 z m -46.572,0 L 23.342,21.713 99.59,21.712 83.885,48.914 Z M 0,48.914 V 0 h 9.074 l 28.24,48.914 z M 10.805,0 h 101.321 l -11.67,20.213 -77.979,10e-4 z"
         id="path50"
         inkscape:connector-curvature="0" /></clipPath><clipPath
       clipPathUnits="userSpaceOnUse"
       id="clipPath64"><path
         d="m 147.102,48.914 c 4.512,-1.822 8.477,-4.755 11.576,-8.475 v 0 l 1.152,0.958 c -2.552,3.068 -5.674,5.63 -9.195,7.517 v 0 z m -25.028,0 c -2.786,-1.492 -5.321,-3.407 -7.522,-5.66 v 0 c -5.575,-5.706 -9.023,-13.59 -9.023,-22.29 v 0 c 0,-2.945 0.396,-5.797 1.134,-8.504 v 0 L 113.858,0 h 1.499 c -5.152,5.412 -8.326,12.803 -8.327,20.964 v 0 c 0.001,8.3 3.286,15.806 8.595,21.241 v 0 c 2.821,2.887 6.21,5.186 9.981,6.709 v 0 z m 3.853,-27.201 v -1.499 h 39.742 C 165.48,12.352 162.345,5.245 157.352,0 v 0 h 2.028 c 4.851,5.572 7.798,12.919 7.798,20.964 v 0 0.749 z"
         id="path62"
         inkscape:connector-curvature="0" /></clipPath><clipPath
       clipPathUnits="userSpaceOnUse"
       id="clipPath76"><path
         d="M 83.885,48.914 99.59,21.712 h 1.342 v -1.499 h -0.476 L 112.126,0 h 1.732 l -7.195,12.46 -21.045,36.454 z m -46.571,0 L 9.074,0 h 1.731 L 22.477,20.214 H 22 v 1.499 h 1.342 l 15.704,27.201 z"
         id="path74"
         inkscape:connector-curvature="0" /></clipPath><clipPath
       clipPathUnits="userSpaceOnUse"
       id="clipPath88"><path
         d="m 22,21.713 v -1.499 h 0.477 l 77.979,-10e-4 h 0.476 v 1.499 H 99.59 l -76.248,0.001 z"
         id="path86"
         inkscape:connector-curvature="0" /></clipPath><clipPath
       clipPathUnits="userSpaceOnUse"
       id="clipPath100"><path
         d="M 0,0 H 841.89 V 595.276 H 0 Z"
         id="path98"
         inkscape:connector-curvature="0" /></clipPath><clipPath
       clipPathUnits="userSpaceOnUse"
       id="clipPath114"><path
         d="M 0,595.276 H 841.89 V 0 H 0 Z"
         id="path112"
         inkscape:connector-curvature="0" /></clipPath><clipPath
       clipPathUnits="userSpaceOnUse"
       id="clipPath124"><path
         d="m 35.998,509.911 h 46.675 v 57.018 H 35.998 Z"
         id="path122"
         inkscape:connector-curvature="0" /></clipPath><clipPath
       clipPathUnits="userSpaceOnUse"
       id="clipPath274"><path
         d="M 0,595.275 V 53.628 h 392.598 l 152.068,541.647 z"
         id="path272"
         inkscape:connector-curvature="0" /></clipPath><clipPath
       clipPathUnits="userSpaceOnUse"
       id="clipPath288"><path
         d="m 728.535,497.712 h 56.662 v 69.217 h -56.662 z"
         id="path286"
         inkscape:connector-curvature="0" /></clipPath></defs><sodipodi:namedview
     pagecolor="#ffffff"
     bordercolor="#666666"
     borderopacity="1"
     objecttolerance="10"
     gridtolerance="10"
     guidetolerance="10"
     inkscape:pageopacity="0"
     inkscape:pageshadow="2"
     inkscape:window-width="1920"
     inkscape:window-height="1005"
     id="namedview4"
     showgrid="false"
     fit-margin-top="0"
     fit-margin-left="0"
     fit-margin-right="0"
     fit-margin-bottom="0"
     inkscape:zoom="1.0212448"
     inkscape:cx="345.71397"
     inkscape:cy="20.477981"
     inkscape:window-x="-9"
     inkscape:window-y="-9"
     inkscape:window-maximized="1"
     inkscape:current-layer="g10" /><g
     id="g10"
     inkscape:groupmode="layer"
     inkscape:label="P1025435-00"
     transform="matrix(1.3333333,0,0,-1.3333333,-790.29538,755.90527)"><g
       id="g1411"
       transform="matrix(3.396941,0,0,3.396941,-1882.0709,-1358.8954)"><path
         d="m 730.6502,502.533 h -1.004 v 1.836 c 0,0.145 -0.07,0.217 -0.21,0.217 h -0.842 l 0.221,0.99 h 1.182 c 0.184,0 0.338,-0.072 0.464,-0.217 0.126,-0.144 0.189,-0.304 0.189,-0.478 z"
         style="fill:#000000;fill-opacity:1;fill-rule:nonzero;stroke:none"
         id="path292"
         inkscape:connector-curvature="0" /><path
         d="m 730.6976,502.4854 h -1.099 v 1.884 c 0,0.118 -0.048,0.169 -0.163,0.169 h -0.9 l 0.242,1.085 h 1.22 c 0.197,0 0.365,-0.078 0.499,-0.233 0.134,-0.153 0.201,-0.324 0.201,-0.51 z m -1.003,0.095 h 0.908 v 2.3 c 0,0.162 -0.059,0.313 -0.177,0.448 -0.118,0.134 -0.258,0.2 -0.428,0.2 h -1.144 l -0.2,-0.895 h 0.782 c 0.167,0 0.259,-0.094 0.259,-0.264 z"
         style="fill:#000000;fill-opacity:1;fill-rule:nonzero;stroke:none"
         id="path296"
         inkscape:connector-curvature="0" /><path
         d="m 736.0728,505.2311 -1.867,-5.297 h -1.02 l 1.613,4.652 h -3.07 v 3.166 h 1.014 v -2.176 h 3.33 z"
         style="fill:#000000;fill-opacity:1;fill-rule:nonzero;stroke:none"
         id="path300"
         inkscape:connector-curvature="0" /><path
         d="m 734.2393,499.8874 h -1.12 l 1.613,4.651 h -3.051 v 3.261 h 1.109 v -2.176 h 3.33 v -0.392 z m -0.987,0.095 h 0.92 l 1.856,5.265 -0.003,0.281 h -3.33 v 2.176 h -0.919 v -3.071 h 3.09 z"
         style="fill:#000000;fill-opacity:1;fill-rule:nonzero;stroke:none"
         id="path304"
         inkscape:connector-curvature="0" /><path
         d="m 741.8405,499.935 h -1.182 l -1.915,2.882 -0.222,-0.307 c -0.13,-0.188 -0.214,-0.424 -0.254,-0.706 l -0.242,-1.869 h -1.015 l 0.286,1.98 c 0.065,0.479 0.219,0.859 0.464,1.141 l 0.443,0.512 -1.382,1.892 v 0.116 h 1.225 l 1.749,-2.337 0.2,0.251 c 0.226,0.282 0.373,0.627 0.442,1.034 l 0.162,1.052 h 1.084 l -0.118,-0.812 c -0.105,-0.683 -0.367,-1.259 -0.788,-1.73 l -0.507,-0.568 1.57,-2.392 z"
         style="fill:#000000;fill-opacity:1;fill-rule:nonzero;stroke:none"
         id="path308"
         inkscape:connector-curvature="0" /><path
         d="m 741.888,499.8874 h -1.255 l -1.892,2.846 -0.181,-0.25 c -0.124,-0.182 -0.207,-0.413 -0.245,-0.686 l -0.248,-1.91 h -1.111 l 0.294,2.035 c 0.065,0.485 0.225,0.877 0.475,1.165 l 0.418,0.483 -1.369,1.889 v 0.164 h 1.296 l 1.726,-2.306 0.162,0.202 c 0.22,0.274 0.366,0.615 0.433,1.013 l 0.167,1.091 h 1.181 l -0.127,-0.866 c -0.105,-0.689 -0.374,-1.279 -0.799,-1.755 l -0.483,-0.541 1.558,-2.387 z m -1.204,0.095 h 1.109 v 0.077 l -1.582,2.411 0.531,0.595 c 0.413,0.461 0.674,1.036 0.776,1.706 l 0.111,0.757 h -0.989 l -0.156,-1.011 c -0.069,-0.415 -0.221,-0.77 -0.452,-1.057 l -0.238,-0.299 -1.771,2.367 h -1.154 v -0.053 l 1.395,-1.91 -0.467,-0.54 c -0.238,-0.274 -0.39,-0.649 -0.453,-1.116 l -0.279,-1.927 h 0.918 l 0.238,1.828 c 0.041,0.288 0.128,0.533 0.262,0.727 l 0.262,0.363 z"
         style="fill:#000000;fill-opacity:1;fill-rule:nonzero;stroke:none"
         id="path312"
         inkscape:connector-curvature="0" /><path
         d="m 744.651,502.533 h -1.004 v 1.836 c 0,0.145 -0.07,0.217 -0.21,0.217 h -0.842 l 0.221,0.99 h 1.182 c 0.184,0 0.338,-0.072 0.464,-0.217 0.126,-0.144 0.189,-0.304 0.189,-0.478 z"
         style="fill:#000000;fill-opacity:1;fill-rule:nonzero;stroke:none"
         id="path316"
         inkscape:connector-curvature="0" /><path
         d="m 744.6986,502.4854 h -1.099 v 1.884 c 0,0.118 -0.048,0.169 -0.163,0.169 h -0.901 l 0.243,1.085 h 1.22 c 0.197,0 0.365,-0.078 0.499,-0.233 0.134,-0.153 0.201,-0.324 0.201,-0.51 z m -1.004,0.095 h 0.909 v 2.3 c 0,0.162 -0.06,0.313 -0.177,0.448 -0.118,0.134 -0.258,0.2 -0.428,0.2 h -1.144 l -0.2,-0.895 h 0.782 c 0.167,0 0.258,-0.094 0.258,-0.264 z"
         style="fill:#000000;fill-opacity:1;fill-rule:nonzero;stroke:none"
         id="path320"
         inkscape:connector-curvature="0" /><path
         d="m 749.7391,499.935 h -0.993 v 4.239 c 0,0.115 -0.039,0.212 -0.116,0.292 -0.077,0.08 -0.163,0.12 -0.256,0.12 h -2.655 l 0.242,0.99 h 2.931 c 0.176,0 0.349,-0.068 0.518,-0.206 0.219,-0.174 0.329,-0.406 0.329,-0.695 z"
         style="fill:#000000;fill-opacity:1;fill-rule:nonzero;stroke:none"
         id="path324"
         inkscape:connector-curvature="0" /><path
         d="m 749.7867,499.8874 h -1.088 v 4.287 c 0,0.103 -0.033,0.188 -0.102,0.259 -0.069,0.07 -0.142,0.105 -0.223,0.105 h -2.715 l 0.266,1.085 h 2.967 c 0.187,0 0.371,-0.073 0.548,-0.216 0.23,-0.183 0.347,-0.429 0.347,-0.733 z m -0.993,0.095 h 0.898 v 4.692 c 0,0.277 -0.102,0.492 -0.311,0.659 -0.16,0.129 -0.324,0.195 -0.489,0.195 h -2.893 l -0.22,-0.895 h 2.595 c 0.107,0 0.205,-0.045 0.291,-0.134 0.086,-0.089 0.129,-0.198 0.129,-0.325 z"
         style="fill:#000000;fill-opacity:1;fill-rule:nonzero;stroke:none"
         id="path328"
         inkscape:connector-curvature="0" /><path
         d="m 753.2944,504.5858 h -0.286 c -0.184,-0.167 -0.275,-0.256 -0.275,-0.267 -0.09,-0.089 -0.153,-0.206 -0.189,-0.351 -0.061,-0.204 -0.076,-0.482 -0.043,-0.834 l 0.253,-3.199 h -1.02 l -0.199,2.598 c -0.029,0.386 -0.044,0.662 -0.044,0.829 0,0.33 0.071,0.579 0.211,0.746 l 0.124,0.144 c 0.079,0.1 0.23,0.212 0.454,0.334 h -1.528 l 0.254,0.99 h 2.288 z"
         style="fill:#000000;fill-opacity:1;fill-rule:nonzero;stroke:none"
         id="path332"
         inkscape:connector-curvature="0" /><path
         d="m 752.8062,499.8874 h -1.115 l -0.203,2.642 c -0.029,0.384 -0.044,0.664 -0.044,0.833 0,0.34 0.075,0.601 0.222,0.776 l 0.124,0.145 c 0.063,0.079 0.166,0.164 0.314,0.255 h -1.413 l 0.278,1.085 h 2.373 v -1.085 h -0.316 c -0.176,-0.161 -0.23,-0.215 -0.246,-0.234 v -0.005 l -0.014,-0.014 c -0.083,-0.083 -0.142,-0.193 -0.176,-0.328 -0.06,-0.2 -0.074,-0.475 -0.042,-0.819 z m -1.027,0.095 h 0.924 l -0.25,3.147 c -0.032,0.357 -0.017,0.644 0.046,0.853 0.036,0.147 0.102,0.27 0.195,0.364 0.018,0.03 0.08,0.09 0.282,0.275 l 0.014,0.012 h 0.257 v 0.895 h -2.204 l -0.23,-0.895 h 1.467 l 0.023,-0.089 c -0.217,-0.119 -0.365,-0.227 -0.439,-0.322 l -0.126,-0.146 c -0.132,-0.157 -0.199,-0.398 -0.199,-0.714 0,-0.167 0.015,-0.445 0.043,-0.826 z"
         style="fill:#000000;fill-opacity:1;fill-rule:nonzero;stroke:none"
         id="path336"
         inkscape:connector-curvature="0" /><path
         d="m 758.9704,505.5761 -0.761,-4.367 c -0.061,-0.349 -0.203,-0.65 -0.426,-0.904 -0.223,-0.254 -0.471,-0.381 -0.745,-0.381 h -2.655 v 1.001 l 1.338,-0.067 -1.392,4.718 h 1.117 l 1.328,-4.751 c 0.147,0.052 0.251,0.121 0.313,0.209 0.061,0.087 0.111,0.242 0.151,0.464 l 0.647,4.078 z"
         style="fill:#000000;fill-opacity:1;fill-rule:nonzero;stroke:none"
         id="path340"
         inkscape:connector-curvature="0" /><path
         d="m 757.0384,499.8763 h -2.703 v 1.099 l 1.322,-0.066 -1.392,4.714 h 1.217 l 0.01,-0.035 1.313,-4.7 c 0.113,0.045 0.195,0.103 0.243,0.172 0.057,0.082 0.105,0.232 0.143,0.446 l 0.654,4.117 h 1.182 l -0.771,-4.422 c -0.063,-0.356 -0.209,-0.668 -0.437,-0.928 -0.232,-0.263 -0.495,-0.397 -0.781,-0.397 m -2.608,0.095 h 2.608 c 0.258,0 0.496,0.123 0.71,0.365 0.215,0.246 0.355,0.542 0.414,0.881 l 0.751,4.311 h -0.987 l -0.641,-4.038 c -0.041,-0.232 -0.093,-0.39 -0.159,-0.484 -0.067,-0.095 -0.181,-0.171 -0.337,-0.226 l -0.048,-0.017 -1.331,4.765 h -1.018 l 1.394,-4.721 -1.356,0.068 z"
         style="fill:#000000;fill-opacity:1;fill-rule:nonzero;stroke:none"
         id="path344"
         inkscape:connector-curvature="0" /><path
         d="m 765.1379,499.935 h -0.567 v 4.045 c 0,0.471 -0.165,0.782 -0.496,0.934 -0.072,0.037 -0.203,0.056 -0.394,0.056 h -1.927 l 0.081,-5.035 h -1.737 v 0.589 h 1.171 l -0.087,4.446 h -0.766 l 0.146,0.606 h 3.383 c 0.213,0 0.392,-0.039 0.54,-0.116 0.435,-0.22 0.653,-0.663 0.653,-1.33 z"
         style="fill:#000000;fill-opacity:1;fill-rule:nonzero;stroke:none"
         id="path348"
         inkscape:connector-curvature="0" /><path
         d="m 765.1854,499.8874 h -0.662 v 4.092 c 0,0.455 -0.153,0.747 -0.468,0.892 -0.047,0.023 -0.148,0.051 -0.375,0.051 h -1.878 l 0.081,-5.035 h -1.834 v 0.685 h 1.171 l -0.085,4.35 h -0.78 l 0.169,0.701 h 3.421 c 0.219,0 0.408,-0.041 0.562,-0.122 0.45,-0.226 0.678,-0.688 0.678,-1.372 z m -0.567,0.095 h 0.472 v 4.147 c 0,0.645 -0.211,1.078 -0.627,1.287 -0.141,0.075 -0.315,0.112 -0.518,0.112 h -3.346 l -0.123,-0.511 h 0.752 l 0.088,-4.54 h -1.171 v -0.495 h 1.642 l -0.081,5.035 h 1.974 c 0.201,0 0.337,-0.02 0.416,-0.061 0.346,-0.159 0.522,-0.488 0.522,-0.977 z"
         style="fill:#000000;fill-opacity:1;fill-rule:nonzero;stroke:none"
         id="path352"
         inkscape:connector-curvature="0" /><path
         d="m 770.3661,505.5761 -0.151,-1.001 c -0.083,-0.534 -0.346,-1.015 -0.788,-1.441 l -0.464,-0.44 1.317,-2.097 v -0.662 h -3.595 v 0.589 h 2.941 l -1.349,2.109 c -0.093,0.145 -0.223,0.347 -0.388,0.606 l -1.49,2.337 h 0.751 l 1.581,-2.426 0.324,0.317 c 0.291,0.29 0.471,0.685 0.539,1.186 l 0.13,0.923 z"
         style="fill:#000000;fill-opacity:1;fill-rule:nonzero;stroke:none"
         id="path356"
         inkscape:connector-curvature="0" /><path
         d="m 770.3271,499.8874 h -3.689 v 0.685 h 2.902 l -1.303,2.035 c -0.093,0.145 -0.223,0.347 -0.388,0.607 l -1.536,2.409 h 0.862 l 0.014,-0.021 1.55,-2.377 0.282,0.276 c 0.282,0.281 0.46,0.67 0.526,1.158 l 0.135,0.964 h 0.739 l -0.159,-1.056 c -0.084,-0.542 -0.354,-1.036 -0.802,-1.468 l -0.436,-0.413 1.303,-2.089 z m -3.594,0.095 h 3.499 v 0.601 l -1.33,2.119 0.492,0.466 c 0.433,0.417 0.693,0.892 0.774,1.414 l 0.143,0.946 h -0.546 l -0.124,-0.883 c -0.069,-0.508 -0.255,-0.916 -0.553,-1.211 l -0.366,-0.358 -1.598,2.452 h -0.638 l 1.443,-2.263 c 0.165,-0.26 0.295,-0.462 0.388,-0.606 l 1.396,-2.182 h -2.98 z"
         style="fill:#000000;fill-opacity:1;fill-rule:nonzero;stroke:none"
         id="path360"
         inkscape:connector-curvature="0" /><path
         d="m 773.4035,499.935 h -0.561 v 4.695 c 0,0.234 -0.112,0.351 -0.335,0.351 h -0.772 l 0.124,0.595 h 0.972 c 0.381,0 0.572,-0.213 0.572,-0.64 z"
         style="fill:#000000;fill-opacity:1;fill-rule:nonzero;stroke:none"
         id="path364"
         inkscape:connector-curvature="0" /><path
         d="m 773.4507,499.8874 h -0.656 v 4.743 c 0,0.207 -0.092,0.303 -0.287,0.303 h -0.83 l 0.144,0.69 h 1.01 c 0.405,0 0.619,-0.237 0.619,-0.687 z m -0.561,0.095 h 0.466 v 4.954 c 0,0.398 -0.172,0.592 -0.524,0.592 h -0.933 l -0.104,-0.5 h 0.713 c 0.25,0 0.382,-0.138 0.382,-0.398 z"
         style="fill:#000000;fill-opacity:1;fill-rule:nonzero;stroke:none"
         id="path368"
         inkscape:connector-curvature="0" /><path
         d="m 779.2466,499.935 h -4.279 v 0.589 h 2.962 v 4.023 c 0,0.282 -0.117,0.423 -0.351,0.423 h -2.719 l 0.145,0.606 h 2.704 c 0.539,0 0.809,-0.323 0.809,-0.968 v -3.533 c 0,-0.341 0.008,-0.524 0.022,-0.551 h 0.707 z"
         style="fill:#000000;fill-opacity:1;fill-rule:nonzero;stroke:none"
         id="path372"
         inkscape:connector-curvature="0" /><path
         d="m 779.2942,499.8874 h -4.374 v 0.685 h 2.962 v 3.975 c 0,0.336 -0.173,0.375 -0.304,0.375 h -2.779 l 0.169,0.701 h 2.74 c 0.569,0 0.857,-0.341 0.857,-1.015 v -3.533 c 0,-0.327 0.007,-0.454 0.013,-0.503 h 0.716 z m -4.279,0.095 h 4.184 v 0.495 h -0.688 l -0.013,0.024 c -0.011,0.019 -0.027,0.05 -0.027,0.574 v 3.533 c 0,0.619 -0.25,0.92 -0.763,0.92 h -2.665 l -0.123,-0.511 h 2.658 c 0.183,0 0.399,-0.082 0.399,-0.47 v -4.07 h -2.962 z"
         style="fill:#000000;fill-opacity:1;fill-rule:nonzero;stroke:none"
         id="path376"
         inkscape:connector-curvature="0" /><path
         d="m 785.1495,505.4928 -1.668,-5.558 h -0.582 l 1.489,5.046 h -3.913 l 0.136,0.595 h 4.538 z m -3.832,-7.733 h -0.577 v 5.546 h 0.577 z"
         style="fill:#000000;fill-opacity:1;fill-rule:nonzero;stroke:none"
         id="path380"
         inkscape:connector-curvature="0" /><path
         inkscape:connector-curvature="0"
         id="path382"
         style="fill:#000000;fill-opacity:1;fill-rule:nonzero;stroke:none"
         d="m 781.365,497.712 h -0.673 v 5.642 h 0.673 z m -0.577,0.095 h 0.482 v 5.452 h -0.482 z m 2.729,2.08 h -0.681 l 0.018,0.061 1.471,4.985 h -3.908 l 0.156,0.691 h 4.624 v -0.131 z m -0.554,0.095 h 0.484 l 1.657,5.524 -0.001,0.023 h -4.454 l -0.114,-0.501 h 3.917 l -0.018,-0.061 z" /><path
         inkscape:connector-curvature="0"
         id="path384"
         style="fill:#ffffff;fill-opacity:1;fill-rule:nonzero;stroke:none"
         d="m 784.7,510.944 h -55.51 v 55.51 h 55.51 z" /><path
         d="m 740.3897,533.4307 c -0.019,0.06 -0.039,0.12 -0.058,0.181 -0.042,0.137 -0.083,0.277 -0.122,0.416 -0.022,0.079 -0.044,0.158 -0.066,0.238 -0.035,0.132 -0.069,0.265 -0.101,0.398 -0.026,0.107 -0.051,0.215 -0.074,0.323 -0.019,0.082 -0.038,0.165 -0.054,0.247 -0.035,0.17 -0.067,0.34 -0.097,0.511 -0.013,0.072 -0.025,0.144 -0.036,0.216 -0.031,0.193 -0.061,0.386 -0.085,0.58 -0.003,0.023 -0.006,0.046 -0.008,0.068 -0.026,0.212 -0.049,0.424 -0.067,0.638 -10e-4,0.014 -0.003,0.029 -0.004,0.044 -0.039,0.475 -0.059,0.956 -0.059,1.441 0,0.449 0.016,0.894 0.05,1.334 0,0.003 0,0.006 10e-4,0.01 0.01,0.132 0.022,0.263 0.035,0.395 0.007,0.069 0.015,0.137 0.023,0.206 0.007,0.063 0.014,0.126 0.022,0.189 0.015,0.128 0.033,0.257 0.052,0.385 v 0.002 c 0.432,2.928 1.609,5.679 3.371,8 0.016,0.021 0.032,0.042 0.048,0.063 0.058,0.075 0.116,0.15 0.175,0.224 0.048,0.061 0.096,0.121 0.145,0.181 0.028,0.033 0.055,0.067 0.083,0.101 1.855,2.234 4.257,3.998 6.999,5.084 0.021,0.008 0.042,0.016 0.064,0.024 0.1,0.04 0.201,0.078 0.301,0.115 0.082,0.03 0.164,0.059 0.245,0.088 0.044,0.016 0.087,0.031 0.131,0.046 0.547,0.187 1.109,0.35 1.684,0.484 0.65,0.152 1.301,0.264 1.949,0.339 0.037,0.005 0.074,0.009 0.111,0.013 0.193,0.021 0.385,0.04 0.577,0.054 0.057,0.004 0.113,0.008 0.17,0.011 0.13,0.009 0.26,0.016 0.389,0.022 0.084,0.003 0.169,0.007 0.253,0.009 0.139,0.004 0.277,0.006 0.415,0.007 0.031,0 0.062,10e-4 0.093,10e-4 0.085,0 0.169,-0.002 0.254,-0.004 0.112,-10e-4 0.224,-0.003 0.335,-0.007 0.079,-0.002 0.159,-0.006 0.238,-0.01 0.148,-0.007 0.296,-0.015 0.444,-0.026 0.038,-0.003 0.077,-0.006 0.115,-0.008 1.728,-0.141 3.406,-0.539 4.986,-1.165 v 0.008 c 2.671,-1.057 5.02,-2.757 6.855,-4.909 l 2.806,2.379 c -4.011,4.707 -9.854,7.407 -16.033,7.407 -11.611,0 -21.057,-9.447 -21.057,-21.057 0,-2.219 0.346,-4.357 0.985,-6.367 h 3.898 c -0.138,0.351 -0.264,0.708 -0.381,1.071"
         style="fill:#fec00f;fill-opacity:1;fill-rule:nonzero;stroke:none"
         id="path388"
         inkscape:connector-curvature="0" /><path
         d="m 756.9448,516.7197 c -12.134,0 -22.006,9.872 -22.006,22.006 0,12.135 9.872,22.007 22.006,22.007 6.457,0 12.565,-2.821 16.757,-7.741 l -0.723,-0.615 c -4.011,4.707 -9.855,7.407 -16.034,7.407 -11.611,0 -21.057,-9.447 -21.057,-21.058 0,-11.61 9.446,-21.056 21.057,-21.056 11.452,0 20.799,9.189 21.052,20.582 h -33.934 v 0.949 h 34.888 v -0.475 c 0,-12.134 -9.872,-22.006 -22.006,-22.006"
         style="fill:#000000;fill-opacity:1;fill-rule:nonzero;stroke:none"
         id="path392"
         inkscape:connector-curvature="0" /><path
         d="m 777.0104,510.7057 -6.556,11.357 0.822,0.474 6.556,-11.356 z"
         style="fill:#000000;fill-opacity:1;fill-rule:nonzero;stroke:none"
         id="path396"
         inkscape:connector-curvature="0" /><path
         d="m 734.9382,538.7263 c 0,12.134 9.872,22.007 22.006,22.007 2.185,0 4.329,-0.324 6.373,-0.942 v 6.663 h -34.095 v -34.094 h 6.656 c -0.61,2.016 -0.94,4.153 -0.94,6.366"
         style="fill:#e11b22;fill-opacity:1;fill-rule:nonzero;stroke:none"
         id="path400"
         inkscape:connector-curvature="0" /><path
         d="m 774.3245,538.2515 c -0.06,-2.193 -0.528,-4.285 -1.331,-6.204 -0.07,-0.17 -0.144,-0.338 -0.22,-0.506 -0.015,-0.033 -0.032,-0.067 -0.047,-0.101 -0.066,-0.142 -0.134,-0.283 -0.204,-0.423 -0.021,-0.042 -0.041,-0.084 -0.063,-0.126 -0.082,-0.163 -0.167,-0.324 -0.255,-0.485 -0.018,-0.034 -0.038,-0.068 -0.057,-0.102 -0.075,-0.135 -0.152,-0.269 -0.231,-0.402 -0.024,-0.04 -0.047,-0.079 -0.071,-0.119 -0.093,-0.156 -0.189,-0.31 -0.288,-0.463 -0.022,-0.033 -0.045,-0.067 -0.067,-0.102 -0.085,-0.128 -0.17,-0.255 -0.258,-0.382 -0.026,-0.036 -0.051,-0.073 -0.077,-0.11 -0.104,-0.148 -0.211,-0.295 -0.32,-0.439 -0.026,-0.034 -0.051,-0.067 -0.077,-0.1 -0.093,-0.122 -0.188,-0.242 -0.284,-0.362 -0.027,-0.033 -0.054,-0.067 -0.081,-0.101 -0.116,-0.14 -0.232,-0.278 -0.351,-0.414 -0.029,-0.033 -0.058,-0.065 -0.087,-0.097 -0.101,-0.116 -0.205,-0.229 -0.31,-0.342 -0.028,-0.029 -0.056,-0.06 -0.084,-0.089 -0.125,-0.132 -0.252,-0.262 -0.381,-0.39 -0.031,-0.031 -0.062,-0.061 -0.093,-0.091 -0.111,-0.108 -0.223,-0.215 -0.337,-0.321 -0.029,-0.026 -0.056,-0.053 -0.086,-0.079 -0.134,-0.123 -0.27,-0.244 -0.408,-0.362 -0.034,-0.029 -0.068,-0.058 -0.102,-0.086 -0.119,-0.1 -0.239,-0.2 -0.361,-0.297 -0.029,-0.023 -0.058,-0.047 -0.086,-0.07 -0.144,-0.113 -0.289,-0.224 -0.436,-0.333 -0.035,-0.026 -0.072,-0.052 -0.108,-0.078 -0.128,-0.094 -0.257,-0.185 -0.387,-0.275 -0.029,-0.02 -0.056,-0.04 -0.085,-0.059 -0.152,-0.103 -0.306,-0.204 -0.461,-0.302 -0.037,-0.024 -0.075,-0.047 -0.114,-0.071 -0.136,-0.085 -0.274,-0.169 -0.413,-0.25 -0.027,-0.016 -0.054,-0.033 -0.081,-0.048 -0.16,-0.093 -0.321,-0.182 -0.485,-0.269 -0.039,-0.022 -0.08,-0.043 -0.119,-0.064 -0.146,-0.076 -0.292,-0.151 -0.439,-0.224 -0.026,-0.012 -0.051,-0.025 -0.077,-0.038 -0.167,-0.08 -0.336,-0.158 -0.506,-0.234 -0.042,-0.019 -0.084,-0.037 -0.126,-0.055 -0.154,-0.067 -0.308,-0.132 -0.464,-0.195 -0.023,-0.01 -0.046,-0.019 -0.07,-0.028 -0.173,-0.069 -0.35,-0.136 -0.526,-0.199 -0.043,-0.015 -0.087,-0.031 -0.132,-0.046 -0.162,-0.057 -0.324,-0.112 -0.489,-0.164 -0.02,-0.007 -0.04,-0.013 -0.061,-0.019 -0.18,-0.057 -0.363,-0.11 -0.546,-0.161 -0.045,-0.012 -0.09,-0.025 -0.135,-0.036 -0.171,-0.047 -0.343,-0.09 -0.516,-0.131 -0.017,-0.004 -0.033,-0.008 -0.05,-0.012 -0.186,-0.044 -0.374,-0.083 -0.563,-0.12 -0.047,-0.01 -0.094,-0.019 -0.14,-0.028 -0.18,-0.033 -0.361,-0.065 -0.543,-0.094 -0.012,-0.002 -0.024,-0.004 -0.036,-0.006 -0.192,-0.029 -0.385,-0.055 -0.579,-0.078 -0.048,-0.005 -0.096,-0.011 -0.144,-0.016 -0.189,-0.021 -0.379,-0.04 -0.57,-0.055 -0.007,0 -0.014,-10e-4 -0.021,-0.002 -0.197,-0.015 -0.394,-0.025 -0.593,-0.034 -0.048,-0.002 -0.098,-0.004 -0.147,-0.006 -0.2,-0.006 -0.4,-0.011 -0.601,-0.011 -0.271,0 -0.541,0.007 -0.81,0.02 -0.021,10e-4 -0.043,10e-4 -0.065,0.002 -0.256,0.013 -0.509,0.032 -0.762,0.056 -0.033,0.003 -0.067,0.006 -0.1,0.009 -0.246,0.025 -0.489,0.055 -0.732,0.089 -0.038,0.006 -0.077,0.011 -0.115,0.017 -0.24,0.036 -0.477,0.077 -0.713,0.122 -0.039,0.007 -0.078,0.015 -0.117,0.023 -3.032,0.606 -5.781,2.003 -8.024,3.966 l -1.866,-3.231 c 3.629,-2.967 8.262,-4.75 13.304,-4.75 11.453,0 20.799,9.191 21.052,20.583 z"
         style="fill:#fec00f;fill-opacity:1;fill-rule:nonzero;stroke:none"
         id="path404"
         inkscape:connector-curvature="0" /><path
         d="m 745.5065,525.6497 v 0 l 11.438,19.811 11.437,-19.81 c 0.095,0.083 0.19,0.166 0.283,0.25 0.029,0.027 0.058,0.054 0.087,0.081 0.113,0.104 0.225,0.212 0.336,0.32 0.003,0.003 0.006,0.006 0.009,0.009 l -12.152,21.049 -20.888,-36.178 0.823,-0.475 7.295,12.636 z"
         style="fill:#000000;fill-opacity:1;fill-rule:nonzero;stroke:none"
         id="path408"
         inkscape:connector-curvature="0" /><path
         d="m 748.2846,532.3599 8.66,15 8.661,-15 z"
         style="fill:#00599c;fill-opacity:1;fill-rule:nonzero;stroke:none"
         id="path412"
         inkscape:connector-curvature="0" /><path
         inkscape:connector-curvature="0"
         id="path414"
         style="fill:#000000;fill-opacity:1;fill-rule:nonzero;stroke:none"
         d="m 785.175,510.469 h -56.46 v 56.46 h 56.46 z m -55.511,0.95 h 54.561 v 54.561 h -54.561 z" /></g></g></svg>